# xmcd
#
# Track frame offsets:
#	150
#	14094
#	31937
#	45102
#	60435
#	76008
#	91948
#	107767
#	125172
#	139482
#	152703
#	170066
#	186805
#	201908
#	215530
#	233491
#	247425
#	263326
#	276187
#	289334
#	303656
#
# Disc length: 4244
#
# Revision: 6
# Processed by: cddbd v1.5.1PL0 Copyright (c) Steve Scherf et al.
# Submitted via: FreeRIP 2.60 
# Normalized: r5:DSETVAR1,TDELIM( - )
#
DISCID=30109215
DTITLE=Various Artist - Promo Only Country Radio September 2002
DYEAR=2002
DGENRE=Country
TTITLE0=Toby Keith - Who's Your Daddy
TTITLE1=Brad Paisley - I Wish You'd Stay
TTITLE2=George Strait - She'll Leave You With A Smile
TTITLE3=Terri Clark - I Just Wanna Be Mad
TTITLE4=Brooks and Dunn Feat. Kim Richey - Every River (Single Remix)
TTITLE5=Lonestar - Unusually Unusual
TTITLE6=LeAnn Rimes - Life Goes On
TTITLE7=Hometown News - Wheels
TTITLE8=Eric Heatherly - The Last Man Commited
TTITLE9=Trick Pony - On A Mission (Album Version)
TTITLE10=Dolly Parton - Dagger Through The Heart
TTITLE11=Sawyer Brown - I Need A Girlfriend
TTITLE12=Steve Holy - I'm Not Breakin'
TTITLE13=Joanna Janet - 7 Little Steps (Album Version)
TTITLE14=Josh Turner - She'll Go On You
TTITLE15=Kaley - Big Way
TTITLE16=Nickel Creek - This Side
TTITLE17=Wayne Warner - My Piece Of Heaven On Earth
TTITLE18=Leland Martin - If I had Long Legs (Like Alan Jackson)
TTITLE19=Cerrito - Adios Mi Vida Adios (Good-bye My Love Good-bye)
TTITLE20=Izak and West - Get Out Of My Eyes Teardrops
EXTD=
EXTT0=
EXTT1=
EXTT2=
EXTT3=
EXTT4=
EXTT5=
EXTT6=
EXTT7=
EXTT8=
EXTT9=
EXTT10=
EXTT11=
EXTT12=
EXTT13=
EXTT14=
EXTT15=
EXTT16=
EXTT17=
EXTT18=
EXTT19=
EXTT20=
PLAYORDER=
